# xmcd CD database file
#
# Track frame offsets:
#	150
#	30150
#	60299
#	92924
#	118124
#	157649
#	188174
#	216899
#	244799
#
# Disc length: 3560 seconds
#
# Revision: 0
# Processed by: cddbd v1.5.2PL0 Copyright (c) Steve Scherf et al.
# Submitted via: CDex 1.70beta2
#
DISCID=670de609
DTITLE=村田浩＆ザ・バップバンド - be"BOP"
DYEAR=2002
DGENRE=Jazz
TTITLE0=Carols interlude
TTITLE1=Pent up house
TTITLE2=Caracas
TTITLE3=These foolish things
TTITLE4=Double up
TTITLE5=Wee dot
TTITLE6=Darn that dream
TTITLE7=Sweet cake
TTITLE8=It's you or no one
EXTD=YEAR: 2002
EXTT0=
EXTT1=
EXTT2=
EXTT3=
EXTT4=
EXTT5=
EXTT6=
EXTT7=
EXTT8=
PLAYORDER=
